<svg width="632" height="198" viewBox="0 0 632 198" fill="none" xmlns="http://www.w3.org/2000/svg">
<path d="M76.8002 159.8C65.7335 159.8 55.4669 158 46.0002 154.4C36.6669 150.8 28.5335 145.733 21.6002 139.2C14.8002 132.667 9.46686 125 5.6002 116.2C1.86686 107.4 0.000195473 97.7999 0.000195473 87.3999C0.000195473 76.9999 1.86686 67.3999 5.6002 58.5999C9.46686 49.7999 14.8669 42.1332 21.8002 35.5999C28.7335 29.0666 36.8669 23.9999 46.2002 20.3999C55.5335 16.7999 65.6669 14.9999 76.6002 14.9999C87.6669 14.9999 97.8002 16.7999 107 20.3999C116.334 23.9999 124.4 29.0666 131.2 35.5999C138.134 42.1332 143.534 49.7999 147.4 58.5999C151.267 67.2666 153.2 76.8666 153.2 87.3999C153.2 97.7999 151.267 107.467 147.4 116.4C143.534 125.2 138.134 132.867 131.2 139.4C124.4 145.8 116.334 150.8 107 154.4C97.8002 158 87.7335 159.8 76.8002 159.8ZM76.6002 132.2C82.8669 132.2 88.6002 131.133 93.8002 129C99.1335 126.867 103.8 123.8 107.8 119.8C111.8 115.8 114.867 111.067 117 105.6C119.267 100.133 120.4 94.0666 120.4 87.3999C120.4 80.7332 119.267 74.6666 117 69.1999C114.867 63.7332 111.8 58.9999 107.8 54.9999C103.934 50.9999 99.3335 47.9332 94.0002 45.7999C88.6669 43.6666 82.8669 42.5999 76.6002 42.5999C70.3335 42.5999 64.5335 43.6666 59.2002 45.7999C54.0002 47.9332 49.4002 50.9999 45.4002 54.9999C41.4002 58.9999 38.2669 63.7332 36.0002 69.1999C33.8669 74.6666 32.8002 80.7332 32.8002 87.3999C32.8002 93.9332 33.8669 99.9999 36.0002 105.6C38.2669 111.067 41.3335 115.8 45.2002 119.8C49.2002 123.8 53.8669 126.867 59.2002 129C64.5335 131.133 70.3335 132.2 76.6002 132.2Z" fill="#06B6D4"/>
<path d="M175.35 157.4V49.7999H205.15V80.1999L200.95 71.3999C204.15 63.7999 209.284 58.0666 216.35 54.1999C223.417 50.1999 232.017 48.1999 242.15 48.1999V76.9999C240.817 76.8666 239.617 76.7999 238.55 76.7999C237.484 76.6666 236.35 76.5999 235.15 76.5999C226.617 76.5999 219.684 79.0666 214.35 83.9999C209.15 88.7999 206.55 96.3332 206.55 106.6V157.4H175.35ZM260.897 157.4V49.7999H292.097V157.4H260.897ZM276.497 34.7999C270.764 34.7999 266.097 33.1332 262.497 29.7999C258.897 26.4666 257.097 22.3332 257.097 17.3999C257.097 12.4666 258.897 8.33323 262.497 4.9999C266.097 1.66656 270.764 -0.000109673 276.497 -0.000109673C282.23 -0.000109673 286.897 1.59989 290.497 4.7999C294.097 7.86657 295.897 11.8666 295.897 16.7999C295.897 21.9999 294.097 26.3332 290.497 29.7999C287.03 33.1332 282.364 34.7999 276.497 34.7999ZM371.653 197.8C361.52 197.8 351.72 196.533 342.253 194C332.92 191.6 325.12 187.933 318.853 183L331.253 160.6C335.787 164.333 341.52 167.267 348.453 169.4C355.52 171.667 362.453 172.8 369.253 172.8C380.32 172.8 388.32 170.333 393.253 165.4C398.32 160.467 400.853 153.133 400.853 143.4V127.2L402.853 100.2L402.453 72.9999V49.7999H432.053V139.4C432.053 159.4 426.853 174.133 416.453 183.6C406.053 193.067 391.12 197.8 371.653 197.8ZM366.853 152.2C356.853 152.2 347.787 150.067 339.653 145.8C331.653 141.4 325.187 135.333 320.253 127.6C315.453 119.733 313.053 110.6 313.053 100.2C313.053 89.6666 315.453 80.5332 320.253 72.7999C325.187 64.9332 331.653 58.8666 339.653 54.5999C347.787 50.3332 356.853 48.1999 366.853 48.1999C375.92 48.1999 383.92 50.0666 390.853 53.7999C397.787 57.3999 403.187 63.0666 407.053 70.7999C410.92 78.3999 412.853 88.1999 412.853 100.2C412.853 112.067 410.92 121.867 407.053 129.6C403.187 137.2 397.787 142.867 390.853 146.6C383.92 150.333 375.92 152.2 366.853 152.2ZM373.053 126.6C378.52 126.6 383.387 125.533 387.653 123.4C391.92 121.133 395.253 118 397.653 114C400.053 110 401.253 105.4 401.253 100.2C401.253 94.8666 400.053 90.2666 397.653 86.3999C395.253 82.3999 391.92 79.3332 387.653 77.1999C383.387 74.9332 378.52 73.7999 373.053 73.7999C367.587 73.7999 362.72 74.9332 358.453 77.1999C354.187 79.3332 350.787 82.3999 348.253 86.3999C345.853 90.2666 344.653 94.8666 344.653 100.2C344.653 105.4 345.853 110 348.253 114C350.787 118 354.187 121.133 358.453 123.4C362.72 125.533 367.587 126.6 373.053 126.6ZM461.092 157.4V49.7999H492.292V157.4H461.092ZM476.692 34.7999C470.959 34.7999 466.292 33.1332 462.692 29.7999C459.092 26.4666 457.292 22.3332 457.292 17.3999C457.292 12.4666 459.092 8.33323 462.692 4.9999C466.292 1.66656 470.959 -0.000109673 476.692 -0.000109673C482.426 -0.000109673 487.092 1.59989 490.692 4.7999C494.292 7.86657 496.092 11.8666 496.092 16.7999C496.092 21.9999 494.292 26.3332 490.692 29.7999C487.226 33.1332 482.559 34.7999 476.692 34.7999ZM521.249 157.4V49.7999H551.049V79.5999L545.449 70.5999C549.315 63.3999 554.849 57.8666 562.049 53.9999C569.249 50.1332 577.449 48.1999 586.649 48.1999C595.182 48.1999 602.782 49.9332 609.449 53.3999C616.249 56.7332 621.582 61.9332 625.449 68.9999C629.315 75.9332 631.249 84.8666 631.249 95.7999V157.4H600.049V100.6C600.049 91.9332 598.115 85.5332 594.249 81.3999C590.515 77.2666 585.182 75.1999 578.249 75.1999C573.315 75.1999 568.849 76.2666 564.849 78.3999C560.982 80.3999 557.915 83.5332 555.649 87.7999C553.515 92.0666 552.449 97.5332 552.449 104.2V157.4H521.249Z" fill="white"/>
</svg>
