<svg width="906" height="160" viewBox="0 0 906 160" fill="none" xmlns="http://www.w3.org/2000/svg">
<path d="M75.8002 159.8C65.0002 159.8 54.9335 158.067 45.6002 154.6C36.4002 151 28.4002 145.933 21.6002 139.4C14.8002 132.867 9.46686 125.2 5.6002 116.4C1.86686 107.6 0.000195473 97.9332 0.000195473 87.3999C0.000195473 76.8666 1.86686 67.1999 5.6002 58.3999C9.46686 49.5999 14.8002 41.9332 21.6002 35.3999C28.5335 28.8666 36.6002 23.8666 45.8002 20.3999C55.0002 16.7999 65.0669 14.9999 76.0002 14.9999C88.1335 14.9999 99.0669 17.1332 108.8 21.3999C118.667 25.5332 126.934 31.6666 133.6 39.7999L112.8 58.9999C108 53.5332 102.667 49.4666 96.8002 46.7999C90.9335 43.9999 84.5335 42.5999 77.6002 42.5999C71.0669 42.5999 65.0669 43.6666 59.6002 45.7999C54.1335 47.9332 49.4002 50.9999 45.4002 54.9999C41.4002 58.9999 38.2669 63.7332 36.0002 69.1999C33.8669 74.6666 32.8002 80.7332 32.8002 87.3999C32.8002 94.0666 33.8669 100.133 36.0002 105.6C38.2669 111.067 41.4002 115.8 45.4002 119.8C49.4002 123.8 54.1335 126.867 59.6002 129C65.0669 131.133 71.0669 132.2 77.6002 132.2C84.5335 132.2 90.9335 130.867 96.8002 128.2C102.667 125.4 108 121.2 112.8 115.6L133.6 134.8C126.934 142.933 118.667 149.133 108.8 153.4C99.0669 157.667 88.0669 159.8 75.8002 159.8ZM151.327 157.4V8.99989H182.527V157.4H151.327ZM211.483 157.4V49.7999H242.683V157.4H211.483ZM227.083 34.7999C221.35 34.7999 216.683 33.1332 213.083 29.7999C209.483 26.4666 207.683 22.3332 207.683 17.3999C207.683 12.4666 209.483 8.33323 213.083 4.9999C216.683 1.66656 221.35 -0.000109673 227.083 -0.000109673C232.816 -0.000109673 237.483 1.59989 241.083 4.7999C244.683 7.86657 246.483 11.8666 246.483 16.7999C246.483 21.9999 244.683 26.3332 241.083 29.7999C237.616 33.1332 232.95 34.7999 227.083 34.7999ZM325.039 159C312.773 159 301.973 156.6 292.639 151.8C283.439 147 276.306 140.467 271.239 132.2C266.173 123.8 263.639 114.267 263.639 103.6C263.639 92.7999 266.106 83.2666 271.039 74.9999C276.106 66.5999 282.973 60.0666 291.639 55.3999C300.306 50.5999 310.106 48.1999 321.039 48.1999C331.573 48.1999 341.039 50.4666 349.439 54.9999C357.973 59.3999 364.706 65.7999 369.639 74.1999C374.573 82.4666 377.039 92.3999 377.039 104C377.039 105.2 376.973 106.6 376.839 108.2C376.706 109.667 376.573 111.067 376.439 112.4H289.039V94.1999H360.039L348.039 99.5999C348.039 93.9999 346.906 89.1332 344.639 84.9999C342.373 80.8666 339.239 77.6666 335.239 75.3999C331.239 72.9999 326.573 71.7999 321.239 71.7999C315.906 71.7999 311.173 72.9999 307.039 75.3999C303.039 77.6666 299.906 80.9332 297.639 85.1999C295.373 89.3332 294.239 94.2666 294.239 99.9999V104.8C294.239 110.667 295.506 115.867 298.039 120.4C300.706 124.8 304.373 128.2 309.039 130.6C313.839 132.867 319.439 134 325.839 134C331.573 134 336.573 133.133 340.839 131.4C345.239 129.667 349.239 127.067 352.839 123.6L369.439 141.6C364.506 147.2 358.306 151.533 350.839 154.6C343.373 157.533 334.773 159 325.039 159ZM397.811 157.4V49.7999H427.611V79.5999L422.011 70.5999C425.878 63.3999 431.411 57.8666 438.611 53.9999C445.811 50.1332 454.011 48.1999 463.211 48.1999C471.744 48.1999 479.344 49.9332 486.011 53.3999C492.811 56.7332 498.144 61.9332 502.011 68.9999C505.878 75.9332 507.811 84.8666 507.811 95.7999V157.4H476.611V100.6C476.611 91.9332 474.678 85.5332 470.811 81.3999C467.078 77.2666 461.744 75.1999 454.811 75.1999C449.878 75.1999 445.411 76.2666 441.411 78.3999C437.544 80.3999 434.478 83.5332 432.211 87.7999C430.078 92.0666 429.011 97.5332 429.011 104.2V157.4H397.811ZM580.092 159C567.426 159 557.559 155.8 550.492 149.4C543.426 142.867 539.892 133.2 539.892 120.4V25.9999H571.092V120C571.092 124.533 572.292 128.067 574.692 130.6C577.092 133 580.359 134.2 584.492 134.2C589.426 134.2 593.626 132.867 597.092 130.2L605.492 152.2C602.292 154.467 598.426 156.2 593.892 157.4C589.492 158.467 584.892 159 580.092 159ZM523.292 73.7999V49.7999H597.892V73.7999H523.292Z" fill="#06B6D4"/>
<path d="M623.006 157.4V49.7999H654.206V157.4H623.006ZM638.606 34.7999C632.873 34.7999 628.206 33.1332 624.606 29.7999C621.006 26.4666 619.206 22.3332 619.206 17.3999C619.206 12.4666 621.006 8.33323 624.606 4.9999C628.206 1.66656 632.873 -0.000109673 638.606 -0.000109673C644.34 -0.000109673 649.006 1.59989 652.606 4.7999C656.206 7.86657 658.006 11.8666 658.006 16.7999C658.006 21.9999 656.206 26.3332 652.606 29.7999C649.14 33.1332 644.473 34.7999 638.606 34.7999ZM712.363 157.4L667.163 49.7999H699.363L736.963 142.4H720.963L759.963 49.7999H789.963L744.563 157.4H712.363ZM853.164 159C840.898 159 830.098 156.6 820.764 151.8C811.564 147 804.431 140.467 799.364 132.2C794.298 123.8 791.764 114.267 791.764 103.6C791.764 92.7999 794.231 83.2666 799.164 74.9999C804.231 66.5999 811.098 60.0666 819.764 55.3999C828.431 50.5999 838.231 48.1999 849.164 48.1999C859.698 48.1999 869.164 50.4666 877.564 54.9999C886.098 59.3999 892.831 65.7999 897.764 74.1999C902.698 82.4666 905.164 92.3999 905.164 104C905.164 105.2 905.098 106.6 904.964 108.2C904.831 109.667 904.698 111.067 904.564 112.4H817.164V94.1999H888.164L876.164 99.5999C876.164 93.9999 875.031 89.1332 872.764 84.9999C870.498 80.8666 867.364 77.6666 863.364 75.3999C859.364 72.9999 854.698 71.7999 849.364 71.7999C844.031 71.7999 839.298 72.9999 835.164 75.3999C831.164 77.6666 828.031 80.9332 825.764 85.1999C823.498 89.3332 822.364 94.2666 822.364 99.9999V104.8C822.364 110.667 823.631 115.867 826.164 120.4C828.831 124.8 832.498 128.2 837.164 130.6C841.964 132.867 847.564 134 853.964 134C859.698 134 864.698 133.133 868.964 131.4C873.364 129.667 877.364 127.067 880.964 123.6L897.564 141.6C892.631 147.2 886.431 151.533 878.964 154.6C871.498 157.533 862.898 159 853.164 159Z" fill="black"/>
</svg>
